PathFileType	4	(X/Y/Z)	C:/Users/beibeiliu/ov580/test_trc/User2\sequence.12_training_dense_left.trc
DataRate	CameraRate	NumFrames	NumMarkers	Units	OrigDataRate	OrigDataStartFrame	OrigNumFrames
120	120	24	19	mm	120	56	446
Frame#	Time	ThumbCMC			ThumbMCP			ThumbIP			ThumbTip			IndexMCP			IndexPIP			IndexTip			MiddleMCP			MiddlePIP			MiddleTip			RingMCP			RingPIP			RingTip			PinkyMCP			PinkyPIP			PinkyTip			BackHand1			BackHand2			BackHand3	
		X0	Y0	Z0	X1	Y1	Z1	X2	Y2	Z2	X3	Y3	Z3	X4	Y4	Z4	X5	Y5	Z5	X6	Y6	Z6	X7	Y7	Z7	X8	Y8	Z8	X9	Y9	Z9	X10	Y10	Z10	X11	Y11	Z11	X12	Y12	Z12	X13	Y13	Z13	X14	Y14	Z14	X15	Y15	Z15	X16	Y16	Z16	X17	Y17	Z17	X18	Y18	Z18	
55	0.458333	-153.045	-46.7089	114.757	-148.478	-73.4733	88.7957	-159.813	-92.8565	63.7691	-180.224	-104	44.6419	-188.077	-34.0642	43.3954	-196.25	-64.6587	27.7727	-200.841	-93.9651	42.7581	-209.684	-15.885	42.8862	-218.392	-25.3763	10.1014	-231.922	-38.8723	-12.3876	-229.025	-13.1933	61.1295	-245.078	-13.3921	29.8435	-251.59	-19.0371	5.64782	-248.969	-19.4166	85.7166	-260.854	-14.0817	65.6388	-279.256	-2.17846	46.5536	-212.707	-11.6516	113.128	-203.474	-7.34557	141.821	-175.55	-8.43038	116.992	
56	0.466667	-148.468	-48.521	114.325	-145.025	-77.4966	92.7061	-156.022	-100.31	67.1853	-177.819	-111.074	52.839	-184.823	-42.7338	42.8183	-192.702	-72.8752	32.3159	-197.675	-99.8551	48.3436	-208.409	-21.6469	41.8283	-220.444	-34.9256	12.2483	-234.189	-52.3178	-11.272	-227.607	-17.776	62.0325	-243.381	-20.9337	31.5595	-249.735	-29.557	4.4068	-242.693	-23.0859	88.5176	-258.555	-17.5542	68.3889	-276.577	-7.37326	49.5362	-213.906	-10.4306	110.858	-201.339	-4.19955	145.187	-171.615	-12.0442	112.344	
57	0.475	-146.886	-48.3846	120.461	-145.201	-76.2219	98.0011	-160.671	-98.6376	71.428	-180.567	-108.018	58.9456	-184.296	-45.5261	44.502	-195.922	-73.3709	36.5443	-199.347	-101.089	54.6299	-207.669	-20.3764	45.1166	-218.295	-31.8325	18.7408	-233.042	-53.4558	-8.71343	-226.305	-15.5423	59.8681	-238.121	-18.383	34.4053	-247.372	-28.2536	11.0826	-242.159	-20.0512	91.2259	-260.688	-12.5126	70.3143	-272.788	-3.52966	54.3777	-209.739	-11.3837	116.215	-193.947	-3.96064	144.084	-169.417	-10.3604	117.025	
58	0.483333	-141.3	-49.0171	121.002	-145.053	-75.9876	98.3295	-156.643	-97.5001	74.0762	-181.535	-105.557	57.8847	-182.797	-39.5617	48.3074	-194.633	-67.856	37.0026	-201.083	-99.2705	56.7389	-205.38	-17.1072	50.4077	-218.075	-30.6913	16.8751	-230.935	-48.3474	-7.27298	-223.849	-11.673	66.6728	-237.767	-14.4706	37.8591	-245.673	-23.1756	14.1105	-240.385	-15.6466	94.1398	-254.461	-9.0064	73.5343	-269.788	2.0283	54.5658	-203.479	-8.88432	114.957	-192.685	-3.48224	148.858	-167.732	-8.75958	118.021	
59	0.491667	-138.696	-47.5072	122.767	-142.776	-73.3018	97.7712	-155.478	-92.9472	72.0859	-181.2	-98.2482	57.8791	-179.104	-36.4717	45.7052	-188.89	-66.1818	35.4468	-198.049	-89.5726	51.613	-203.998	-11.6636	49.3894	-213.13	-21.828	21.4093	-230.382	-39.4785	-2.74249	-222.251	-6.53408	65.7014	-232.944	-9.20652	37.7838	-245.955	-16.6726	10.9681	-236.631	-13.9237	96.6761	-255.35	-2.58542	73.4315	-265.163	5.33302	57.8813	-204.115	-5.55043	123.473	-191.976	-0.96822	151.327	-161.507	-7.10907	119.725	
60	0.5	-135.03	-44.3992	124.3	-137.416	-67.3244	97.6967	-149.98	-86.307	65.1986	-172.979	-88.7392	53.6719	-172	-24.5942	51.5955	-183.758	-51.2456	33.1044	-192.617	-84.1379	49.5806	-193.005	-5.28439	50.9281	-206.141	-13.3176	23.2167	-217.674	-29.5909	-8.19151	-215.456	-0.384115	67.8212	-228.053	-0.355345	40.0105	-233.987	-6.9053	13.2407	-230.856	-9.26398	94.0823	-248.272	1.1082	75.7921	-258.631	14.7	61.4316	-198.761	-3.50596	119.612	-187.036	-2.37001	154.352	-163.305	-5.8451	124.94	
61	0.508333	-130.289	-43.0148	125.503	-127.679	-64.1354	97.1033	-136.406	-78.793	65.422	-160.177	-80.4926	44.4386	-162.374	-14.4164	53.1148	-171.293	-39.6633	30.2891	-176.187	-72.7272	40.701	-182.624	4.105	51.5486	-193.174	-0.924888	19.3204	-201.232	-13.1609	-10.025	-206.867	6.45268	69.3174	-211.767	10.8762	38.912	-220.36	6.93286	9.21961	-227.06	-2.48691	91.7404	-238.38	9.14003	71.1643	-246.042	22.0154	55.0694	-195.583	-1.90027	120.112	-186.732	-3.90584	152.417	-152.812	-3.44744	129.529	
62	0.516667	-126.147	-43.4724	130.081	-120.517	-60.4532	96.7541	-125.602	-71.8025	67.6922	-146.123	-70.707	43.0274	-146.94	-7.7332	52.8719	-152.828	-28.3034	29.5859	-164.649	-63.1972	38.4778	-167.24	12.8425	56.7717	-170.654	12.6359	19.9058	-180.735	4.94478	-9.20888	-191.905	14.465	67.0864	-191.866	21.4618	40.1366	-196.381	20.3282	6.86302	-214.883	1.78082	87.8576	-225.659	15.5298	67.2451	-233.057	32.6068	51.6112	-185.541	-0.0756195	124.769	-181.458	-5.64893	153.351	-149.693	-4.38711	132.58	
63	0.525	-123.472	-45.0995	131.832	-113.721	-61.2881	101.231	-116.918	-69.5424	68.2825	-134.503	-68.1033	43.8182	-133.584	-5.12252	57.448	-139.824	-25.7923	30.6665	-151.188	-58.5938	35.8218	-154.898	17.2734	58.142	-154.087	19.4817	26.1757	-156.884	12.9391	-7.8755	-177.973	16.9745	70.9646	-176.524	27.0666	40.1261	-178.746	28.7363	10.4814	-201.8	4.50629	86.9443	-213.438	20.3311	65.8435	-214.974	37.989	46.7551	-177.665	0.313145	123.011	-182.333	-4.33495	155.906	-142.773	-3.77382	133.908	
64	0.533333	-122.325	-44.8366	131.828	-110.11	-64.7138	104.916	-110.121	-71.4291	64.9893	-127.654	-69.9824	45.0498	-127.318	-5.77358	56.5466	-132.694	-27.2053	30.7703	-142.347	-56.4545	34.0371	-144.015	17.1309	60.1426	-145.269	19.9926	24.348	-148.122	15.3047	-7.98524	-172.068	20.8382	69.3947	-169.272	29.5635	42.3613	-166.408	30.9335	10.5341	-194.653	6.98443	84.0408	-203.563	24.1309	63.7898	-209.947	39.6205	47.8562	-175.06	1.28494	122.414	-177.063	-6.19788	153.437	-139.499	-7.67728	134.96	
65	0.541667	-120.143	-46.9917	131.733	-109.263	-63.635	99.7961	-110.167	-74.7904	70.4272	-124.382	-72.3823	43.7823	-123.695	-7.19167	60.8834	-131.493	-28.3934	31.918	-144.53	-61.1872	34.5682	-141.601	15.508	59.7203	-144.827	19.0397	24.9569	-148.065	15.8703	-4.53324	-165.69	18.026	68.2495	-166.402	28.0971	39.8932	-166.967	30.7778	10.7219	-193.214	8.05371	81.7122	-203.921	22.3368	63.2033	-201.803	39.3758	45.1948	-173.442	-1.46726	123.411	-177.006	-3.44967	151.468	-140.309	-6.67701	136.24	
66	0.55	-119.238	-49.8205	129.744	-109.109	-67.7907	100.769	-112.552	-76.356	65.7378	-127.473	-75.6825	39.6514	-125.348	-10.3138	59.3385	-132.544	-30.3001	30.4775	-146.576	-62.806	33.768	-146.543	14.1943	57.8502	-143.882	16.8494	28.1393	-150.362	12.7882	-8.23579	-170.246	16.2215	67.5779	-172.996	27.1987	40.8619	-169.911	28.5753	13.3206	-196.824	3.36791	85.9683	-202.949	18.9409	63.4356	-210.391	35.6745	46.9486	-172.881	-1.83984	123.49	-176.186	-7.07755	150.918	-139.144	-8.39742	135.379	
67	0.558333	-121.301	-50.3878	125.933	-116.161	-69.2292	96.9896	-119.081	-78.8493	60.618	-141.151	-75.0246	39.2136	-136.765	-11.8035	55.3597	-142.209	-31.6883	28.9282	-155.414	-63.6436	31.0021	-156.051	10.9804	57.3961	-157.161	15.1368	23.0821	-163.527	12.2209	-7.45126	-178.104	14.0034	68.1715	-180.657	24.192	38.1378	-180.314	26.2551	9.86271	-204.574	4.38763	84.2519	-213.135	19.3599	63.8293	-216.89	35.2304	44.417	-178.03	-1.97006	122.854	-176.712	-8.84091	149.913	-142.526	-10.03	131.724	
68	0.566667	-126.868	-51.2784	123.181	-123.321	-70.7022	92.5313	-131.635	-79.319	61.6336	-152.904	-79.7169	37.3577	-148.117	-15.2736	49.4708	-159.046	-38.097	25.1397	-172.878	-65.8584	32.1003	-168.934	9.686	55.569	-174.348	11.9953	24.1744	-178.976	8.00299	-7.71144	-188.497	10.1542	69.7691	-195.157	20.087	40.8012	-200.874	23.0608	13.6839	-215.958	0.39781	89.5905	-223.141	15.4261	67.8472	-227.738	29.95	50.3332	-184.546	-3.64857	119.53	-182.623	-7.35439	152.299	-150.206	-10.7255	127.758	
69	0.575	-137.066	-50.103	120.846	-135.857	-70.0183	87.8692	-145.099	-82.4043	56.8467	-167.673	-85.28	38.1012	-160.936	-19.7106	45.9175	-176.396	-43.3507	25.9809	-188.149	-71.5551	34.982	-185.581	5.76443	51.0629	-193.717	7.13688	22.8771	-202.597	1.55786	-10.2961	-206.842	7.33551	69.87	-214.873	15.9796	44.8056	-219.133	16.8452	14.8268	-226.827	-1.84745	92.6363	-236.221	10.703	72.5392	-245.43	24.3113	59.1723	-193.543	-4.75361	124.28	-187.057	-9.51161	155.86	-156.977	-10.9855	125.796	
70	0.583333	-142.314	-50.7012	115.573	-148.28	-70.3173	88.2456	-159.277	-86.3095	56.5364	-183.441	-88.5517	39.2893	-177.19	-23.1322	43.7319	-188.817	-45.1136	25.1504	-204.035	-78.8078	38.8883	-197.521	-0.410053	51.5832	-211.902	-0.111901	22.2836	-220.813	-7.12788	-8.08122	-221.52	3.43543	71.5319	-231.871	9.63643	41.1688	-243.7	10.5574	13.0107	-239.377	-4.5512	95.2249	-253.348	5.09797	80.4058	-261.56	21.5055	59.9105	-203.84	-5.23268	121.571	-188.341	-9.73375	151.764	-164.516	-11.1272	122.653	
71	0.591667	-151.658	-49.0754	109.601	-153.884	-73.6525	87.0817	-171.237	-87.5167	58.1533	-195.365	-93.8752	40.6859	-195.776	-26.125	44.647	-207.219	-52.6615	28.2954	-215.635	-83.2872	43.2902	-211.885	-2.18305	51.5762	-224.659	-5.72542	20.801	-241.135	-14.5237	-9.55534	-233.463	0.272726	68.153	-246.648	4.56663	47.711	-262.604	4.9243	16.4815	-247.059	-10.2889	99.8661	-263.939	2.86224	80.6168	-275.323	19.5172	64.5934	-212.051	-6.01529	119.149	-197.212	-6.75336	149.698	-170.652	-10.1058	116.628	
72	0.6	-155.265	-50.0979	112.973	-160.768	-73.6182	86.3805	-174.85	-90.8858	56.8799	-202.405	-93.5229	44.192	-203.174	-28.0143	44.0281	-216.597	-53.25	29.538	-221.501	-83.8387	42.8524	-224.167	-3.79354	50.0633	-240.196	-8.51663	20.5804	-254.173	-17.7068	-4.80159	-243.601	-1.50489	70.5241	-257.752	2.72257	45.5555	-271.607	1.58939	17.924	-251.959	-11.0083	98.3148	-272.381	1.10333	84.3656	-287.787	16.7263	71.1435	-218.371	-5.58675	122.673	-200.722	-6.63246	151.857	-179.306	-10.0787	119.096	
73	0.608333	-159.673	-48.381	114.864	-165.968	-69.7576	85.6285	-180.39	-88.0363	55.7476	-202.091	-95.6339	42.4989	-202.59	-27.6831	45.7951	-214.981	-55.595	28.7368	-225.199	-85.4843	46.5315	-223.983	-4.68157	51.6562	-240.836	-7.6839	24.5163	-258.797	-18.4872	-5.89556	-244.413	-2.19262	71.9668	-261.75	1.0363	44.8652	-278.074	0.107429	19.3334	-258.509	-8.97055	97.1921	-278.762	0.773196	85.3563	-291.161	15.0406	66.79	-219.818	-7.05418	119.184	-210.838	-6.85657	150.067	-184.268	-9.78674	118.383	
74	0.616667	-161.964	-45.7324	116.476	-159.791	-69.0202	86.0913	-176.037	-84.2159	55.3698	-195.637	-91.8333	39.6866	-200.741	-25.3032	46.8396	-212.506	-51.1552	29.7175	-216.846	-83.2618	42.806	-223.396	-1.73401	50.5812	-238.12	-5.83437	23.2733	-249.379	-14.2449	-5.13414	-242.566	-2.12758	72.254	-262.949	3.32376	45.6644	-273.442	0.895307	23.3318	-259.681	-11.2823	98.404	-274.23	-2.69217	82.6425	-288.375	12.9044	66.378	-224.099	-9.96736	124.799	-208.164	-8.00132	152.364	-183.724	-9.56162	121.809	
75	0.625	-156.518	-43.0843	118.452	-155.171	-63.5228	89.0562	-162.279	-77.6679	57.9703	-183.414	-85.1982	38.9498	-195.332	-18.2958	48.4714	-203.02	-46.7409	29.2742	-203.963	-77.8935	39.2697	-216.812	2.08893	53.3427	-229.805	-0.124556	22.8721	-240.298	-9.22478	-9.65905	-242.721	-0.554608	70.5729	-252.353	5.43262	44.3007	-267.37	5.73733	15.0972	-254.174	-14.4004	93.9593	-272.118	-3.02853	79.1972	-281.52	13.6193	61.5808	-221.447	-8.92629	118.914	-210.93	-11.4882	155.033	-185.552	-7.65091	128.807	
76	0.633333	-152.758	-37.9486	120.953	-144.732	-56.9031	93.3825	-153.72	-68.1977	60.6679	-167.728	-76.3684	37.4209	-180.32	-10.3664	52.3905	-184.445	-36.1669	27.4766	-191.331	-67.8253	35.9813	-209.854	7.97735	53.2248	-219.222	7.30059	22.4892	-222.556	0.72458	-7.86289	-232.463	2.68576	69.2295	-247.726	9.12831	41.6533	-254.606	9.22882	15.501	-251.959	-12.8622	89.7727	-264.945	-3.07937	73.0721	-276.388	15.9318	55.6117	-220.641	-11.2477	123.001	-218.82	-12.0311	152.332	-186.776	-4.14229	128.35	
77	0.641667	-153.172	-33.8237	128.84	-140.407	-48.8891	98.085	-139.005	-61.5328	63.9379	-152.649	-67.616	41.4155	-175.224	-3.03432	55.7968	-173.337	-26.3757	29.1656	-177.386	-61.2997	33.5941	-200.475	13.3867	57.2381	-204.755	14.6705	26.0969	-210.498	8.81249	-6.83128	-227.552	5.63745	67.2147	-237.813	12.7172	39.0045	-241.517	16.1885	9.81546	-244.109	-10.4181	84.6144	-257.068	0.310217	65.5863	-264.372	12.9826	49.1849	-221.123	-7.61791	121.383	-218.407	-15.0658	153.148	-186.722	-2.30064	132.083	
78	0.65	-145.478	-31.3522	132.709	-133.769	-42.8668	99.6812	-131.095	-52.8646	67.7311	-144.747	-57.2123	44.144	-165.783	2.21978	57.5959	-160.934	-15.9194	32.3877	-164.845	-49.56	31.4688	-197.299	17.1964	62.1862	-195.895	22.6426	24.2987	-195.202	19.8675	-5.2912	-219.299	9.51137	70.9257	-228.656	19.6414	41.2559	-228.586	23.7352	14.5005	-236.414	-11.3334	84.6198	-249.921	4.59492	61.636	-257.992	18.087	46.4939	-213.99	-9.30497	122.667	-215.156	-15.2221	151.201	-180.174	-2.80525	135.439	
